<svg xmlns="http://www.w3.org/2000/svg" width="710" height="125" viewBox="0 0 710 125"><g fill-rule="evenodd" clip-rule="evenodd"><ellipse fill="#FDD000" cx="73.644" cy="94.165" rx="73.644" ry="30.737"/><path fill="#575563" d="M13.22 28.552l-.425 67.343 69.15 16.405 49.202-21.218V19.746L93.124 4.716 57.342 28.553"/><path fill="#D1AC00" d="M81.714 0l44.14 17.67s10.88 60.7-44.7 73.542L81.714 0z"/><path fill="#FDD000" d="M13.22 28.552L81.713 0l.503 91.082s-74.08 12.283-68.996-62.53z"/></g><path d="M179.094 34.204v1.67h-3.605V6.768h23.23V35.87h-3.774V34.2h-15.853zm15.853-23.963h-15.853v8.278h15.853V10.24zm0 20.494v-8.81h-15.853v8.81h15.853zm12.853 0l-2.603-2.87c4.84-2.805 9.612-7.644 12.35-13.15h-11.85V11.31h13.552V5.066h3.735v6.242h13.685v3.403h-11.78c2.737 5.308 7.543 10.047 12.282 12.817l-2.736 3.103c-4.272-2.97-8.51-7.575-11.448-12.783v8.845h5.674V30.1h-5.674v5.94h-3.737V30.1h-5.572v-3.405h5.574V18.25c-2.97 5.107-7.177 9.58-11.45 12.483zm41.492-7.444v-3.838h-2.27V18.35a25.52 25.52 0 0 1-5.54 3.27l-2.203-2.536c2.57-.968 4.87-2.303 6.773-3.938-1.035-1.135-2.304-2.27-3.838-3.438l2.102-1.936c1.568 1.068 2.837 2.103 3.905 3.137a17.233 17.233 0 0 0 2.336-3.74h-8.21V6.1h10.112l2.403.7c-1.068 3.774-3.037 6.978-5.607 9.58h12.116c-2.637-2.67-4.74-6.106-6.108-10.28l3.137-1.067a21.347 21.347 0 0 0 1.803 4.272c1.702-1.335 3.304-2.737 4.24-3.805l2.402 2.103c-1.235 1.202-3.137 2.703-5.106 4.072.5.667 1.035 1.3 1.57 1.87 1.767-1.303 3.437-2.704 4.44-3.773l2.434 2.237c-1.135 1.066-2.804 2.333-4.606 3.536 1.7 1.268 3.57 2.27 5.606 3.003l-2.336 2.903c-1.903-.835-3.705-1.87-5.34-3.17v1.167h-2.57v3.84h8.21v3.07h-8.21v3.57c0 1.802.267 2.037 1.27 2.07h3.236c1.002-.034 1.102-.2 1.168-3.004l3.47.6c-.4 5.208-1.034 5.842-4.337 5.91a77 77 0 0 1-3.905 0c-3.705-.1-4.54-1.036-4.54-5.575v-3.57h-4.505c-.5 3.706-3.038 6.977-9.312 9.713l-2.636-2.57c5.472-2.002 7.742-4.405 8.31-7.143h-7.878v-3.07h8.01zm8.01 0v-3.838h-4.405v3.838h4.405zm31.18-4.906h8.71v3.438h-8.71v7.843h10.613v3.57h-14.652V7.605h13.918v3.57h-9.877v7.21zm17.39 2.336c0-7.01 2.57-13.65 12.418-13.65 2.202 0 4.54.433 6.074.9l-.668 3.705c-1.535-.6-3.47-.968-5.273-.968-5.874 0-8.177 4.105-8.177 10.08 0 5.674 2.637 9.21 8.277 9.21 1.77 0 4.205-.433 5.573-.933l.434 3.738c-1.402.467-3.905.9-6.175.9-9.71 0-12.482-6.073-12.482-12.95v-.032zm29.475 11.38l-2.703-2.936c4.906-2.603 10.913-8.11 14.084-12.783H333.11v-3.636h14.92V6.068h4.038v6.676h7.81v3.638h-7.81V29.7c0 3.57-1.368 5.34-4.906 5.34-1.47 0-3.137-.068-4.706-.3V30.9c1.302.2 2.704.267 3.772.267 1.268 0 1.802-.568 1.802-1.87v-8.51c-3.505 4.272-8.378 8.645-12.683 11.314zm55.44-13.516v4.04h-27.3v-4.04h27.3zm26.24-8.444l3.07 1.635c-2.435 10.914-7.943 18.724-18.323 23.196l-2.704-3.202c9.746-3.805 14.553-10.046 16.287-17.956H395.6v-3.67h21.427zm7.408-2.703c0 1.835-1.5 3.37-3.404 3.37a3.396 3.396 0 0 1-3.4-3.403C417.63 5.5 419.13 4 421.03 4c1.904 0 3.405 1.5 3.405 3.403v.033zm-5.572 0c0 1.135 1 2.136 2.168 2.136 1.17 0 2.17-1 2.17-2.168 0-1.168-1-2.17-2.17-2.17-1.166 0-2.166 1.002-2.166 2.17v.032zm20.53 7.21l-2.604 3.237c-1.87-1.67-5.74-4.44-8.514-5.907l2.436-3.204c2.907 1.667 6.576 4.137 8.68 5.873zm12.18.065l2.57 2.97c-4.64 7.444-14.017 14.386-22.993 17.156l-2.038-3.77c8.846-2.238 17.957-8.913 22.462-16.356zm28.877-4.572l3.07 1.635c-2.436 10.914-7.943 18.724-18.323 23.196l-2.704-3.202c9.747-3.805 14.553-10.046 16.29-17.956h-19.76v-3.67h21.426zm7.41-2.703c0 1.835-1.504 3.37-3.404 3.37a3.398 3.398 0 0 1-3.406-3.403A3.376 3.376 0 0 1 484.456 4c1.9 0 3.403 1.5 3.403 3.404v.033zm-5.575 0c0 1.135 1.002 2.136 2.17 2.136 1.167 0 2.17-1 2.17-2.168 0-1.168-1.003-2.17-2.17-2.17-1.168 0-2.17 1.002-2.17 2.17v.032zm30.245 7.91l2.736 1.903c-2.47 8.61-8.344 14.618-16.654 17.822l-2.504-3.438c7.643-2.537 12.648-7.343 14.117-12.683h-20.492V15.35h22.796zm-.27-7.576v3.57h-19.124V7.77h19.125zm13.19 8.778c1.167 1.87 2.368 4.706 3.035 6.742l-3.07 1.302c-.467-1.803-1.87-5.007-2.97-6.708l3.004-1.336zm17.52.034c-1.268 8.41-6.34 15.352-13.85 18.457l-2.236-3.07c7.376-2.67 11.447-8.413 12.55-16.123l3.536.734zm-11.08-1.402c1.067 1.902 2.203 4.772 2.804 6.84l-3.07 1.27c-.435-1.835-1.702-5.106-2.737-6.91l3.004-1.2zm40.19 8.276l-2.57 3.27c-3.405-2.536-8.08-5.205-12.284-7.24v15.552h-4.038V6.068h4.038v9.146c4.774 2.17 10.613 5.373 14.853 8.242zm27.24-13.583l3.068 1.635c-2.47 10.914-7.943 18.99-18.32 23.463l-2.74-3.202c9.748-3.805 14.586-10.313 16.322-18.223h-19.792v-3.67h21.46zm8.713 22.83l-2.268-2.57c3.905-2.203 8.076-5.875 10.58-9.38h-10.08v-3.27h11.448v-5.006h3.57v5.006h5.874v3.27h-5.874V30.9c0 2.77-1.367 4.138-4.14 4.138-1.133 0-2.534-.034-3.77-.2v-3.205c1.034.133 2.102.167 2.936.167.966 0 1.4-.4 1.4-1.4v-6.31c-2.7 3.24-6.27 6.475-9.678 8.612zm53.137-14.12v4.04h-27.3v-4.04h27.3zm6.316 10.98c2.87-7.34 5.505-15.32 7.34-22.76l4.106 1c-2.002 7.143-4.438 14.386-7.142 21.36 4.473-.4 9.412-.967 13.483-1.5-1.435-2.337-3.037-4.64-4.506-6.44l3.372-1.87c3.134 4.005 6.604 9.445 8.81 13.617l-3.806 2.002c-.47-1.168-1.136-2.47-1.87-3.838-7.376 1.035-16.32 2.036-22.36 2.67l-.734-4.038c1-.034 2.103-.135 3.306-.202z" fill="#575563"/><path fill-rule="evenodd" clip-rule="evenodd" fill="#575563" d="M173.816 51.977v68.774h65.332v-14.023h-46.882c-2.67 0-4.012-1.268-4.012-3.81v-5.4c0-2.536 1.342-3.81 4.012-3.81h46.882v-14.02h-46.882c-2.67 0-4.012-1.334-4.012-4.003V70c0-2.664 1.342-4 4.012-4h46.882V51.978h-65.332zm82.348 0v68.774h65.332v-14.023H274.62c-2.675 0-4.01-1.29-4.01-3.885V69.888c0-2.588 1.335-3.885 4.01-3.885h46.876V51.977h-65.332zm372.355-.893v68.766h65.33v-14.017h-46.875c-2.677 0-4.012-1.267-4.012-3.81v-5.4c0-2.534 1.335-3.81 4.012-3.81h46.873V78.79h-46.874c-2.677 0-4.012-1.328-4.012-4v-5.684c0-2.67 1.335-4.004 4.012-4.004h46.873V51.084h-65.33zm-261.68 0v68.766h70.827v-14.017h-52.38c-2.668 0-4.01-1.298-4.01-3.884V68.993c0-2.588 1.342-3.893 4.01-3.893h52.38V51.085H366.84zm89.227 68.766h70.83V51.084h-14.44v50.85c0 2.6-1.334 3.9-4.003 3.9h-33.947c-2.662 0-3.997-1.3-3.997-3.9v-50.85h-14.44v68.766zm135.996-41.06h-29.387c-2.67 0-4.012-1.328-4.012-4v-5.684c0-2.67 1.342-4.004 4.012-4.004h29.76l-.037.06s4.724-.706 4.724 3.96v5.347c0-.003.545 4.32-5.06 4.32zm.21 27.043H563.51c-2.143 0-3.358-.57-4.048-1.282-.498-.62-.797-1.43-.797-2.525v-5.398c0-.578.097-1.066.227-1.51.072-.224.186-.39.285-.57.096-.18.2-.367.326-.517.144-.166.295-.3.453-.42.24-.187.508-.36.83-.48l.247-.09c.48-.142 1.667-.225 1.667-.225h30.69c1.295.037 3.727.532 3.727 3.81v5.092c0-.002.512 4.116-4.844 4.116zm11.943-20.347c2.958-.09 5.326-2.414 5.326-5.302l-.02-25.746c-.063-3.69-4.874-3.287-4.874-3.287l-60.425-.065v68.766l60.444-.043s4.79.127 4.85-3.286l.022-25.723c0-2.887-2.368-5.206-5.326-5.31z"/><path fill="#565462" d="M341.695 52.417v67.59c0 1.287 1.12 2.33 2.5 2.33s2.5-1.043 2.5-2.33v-67.59c0-1.288-1.12-2.332-2.5-2.332s-2.5 1.043-2.5 2.332"/><g fill="#565462"><path d="M700.948 117.288v-7.028h3.117c.626 0 1.102.06 1.43.186.325.126.587.35.78.67.196.32.294.675.294 1.06 0 .5-.164.92-.487 1.26-.32.342-.82.56-1.496.65.25.122.434.24.56.354.273.248.53.56.774.932l1.224 1.915h-1.172l-.93-1.46c-.272-.424-.496-.75-.67-.97-.178-.223-.334-.382-.474-.472a1.465 1.465 0 0 0-.427-.185 2.817 2.817 0 0 0-.516-.033h-1.08v3.12h-.928zm.93-3.928h2c.425 0 .757-.042.998-.132.24-.087.42-.23.546-.42.124-.194.188-.405.188-.63 0-.333-.122-.606-.363-.822-.24-.213-.622-.32-1.143-.32h-2.225v2.324z"/><path d="M709.24 113.91h-.367a5.124 5.124 0 0 1-1.507 3.638 5.115 5.115 0 0 1-3.634 1.507 5.126 5.126 0 0 1-3.64-1.507 5.12 5.12 0 0 1-1.508-3.638c0-1.42.575-2.705 1.508-3.638a5.125 5.125 0 0 1 3.64-1.506 5.12 5.12 0 0 1 3.634 1.506 5.124 5.124 0 0 1 1.507 3.638h.738a5.88 5.88 0 0 0-11.76 0 5.88 5.88 0 0 0 11.76 0h-.37z"/></g></svg>