<svg xmlns="http://www.w3.org/2000/svg" viewBox="0 0 700 250"><path d="M191.335 125.294c.7 32.915-27.175 60.086-59.546 60.398-32.91.317-61.27-26.908-60.925-60.98.328-32.524 27.37-59.778 60.598-59.636 33.343.143 60.513 27.993 59.87 60.218zM131.3 74.882c-27.732-.59-50.63 22.84-50.743 50.26C80.442 152.94 103.473 175.9 130.97 176c27.76.1 50.67-22.913 50.82-50.3.153-27.91-22.988-51.297-50.49-50.82z"/><path d="M106.594 138.39c-1.07-1.707-2.837-2.202-4.65-2.44a277.784 277.784 0 0 1-11.895-1.83c-3.99-.703-6.94-4.51-6.865-8.856.077-4.406 2.935-7.957 6.95-8.636 3.864-.654 7.682-1.22 11.914-1.84 2.55-.375 3.544-.782 4.51-2.388 1.164 1.67 3.052 2.182 4.843 2.435 3.707.523 7.492 1.21 10.83 1.814 4.52.817 7.44 4.23 7.44 8.69.002 4.44-2.966 7.96-7.384 8.76-4.455.81-7.89 1.38-11.136 1.857-1.643.24-3.388.745-4.56 2.433zm24.586 21.51c-1.35-1.95-3.542-2.263-5.378-2.524-.418-.06-.814-.116-1.2-.188-1.657-.31-3.343-.584-4.973-.85-1.304-.213-2.65-.432-3.967-.667-4.7-.836-7.718-4.284-7.69-8.782.027-4.37 3.242-7.98 7.82-8.774.76-.132 1.52-.266 2.28-.4 2.752-.486 5.6-.987 8.404-1.377 1.554-.216 3.373-.684 4.647-2.257 1.044 1.564 2.735 2.01 4.206 2.205 4.2.555 8.3 1.222 11.758 1.8 4.3.72 7.33 4.325 7.367 8.77.038 4.598-2.77 8.072-7.158 8.848-2.457.435-4.97.817-7.4 1.187-1.627.248-3.308.504-4.96.773-1.983.324-2.946.81-3.758 2.237zm-.014-43.027c-1.34-1.873-3.47-2.173-5.257-2.425-.413-.058-.8-.113-1.18-.183a223.438 223.438 0 0 0-4.914-.835c-1.465-.238-2.98-.484-4.46-.753-4.173-.758-7.348-4.487-7.387-8.673-.04-4.322 2.816-7.805 7.11-8.67 2.192-.44 4.45-.807 6.63-1.162a290.47 290.47 0 0 0 4.203-.705c3.133-.557 3.82-.75 5.198-2.523 1.05 1.75 2.926 2.222 4.377 2.417 4.045.544 8.114 1.193 11.908 1.814 4.012.656 6.98 4.167 7.06 8.348.09 4.61-2.73 8.375-6.856 9.153-2.76.52-5.594.95-8.334 1.366-1.46.22-2.97.45-4.453.69-1.92.31-2.884.797-3.648 2.144zm24.754 21.344c-1.283-1.572-3.157-2.06-5.046-2.318-3.577-.49-7.09-1.127-10.674-1.79-4.27-.79-7.473-4.56-7.45-8.774.023-4.435 3.086-7.938 7.62-8.718 1.788-.308 3.575-.61 5.363-.912 1.684-.284 3.37-.57 5.052-.857 3.077-.528 3.797-.72 5.094-2.44.972 1.657 2.757 2.147 4.47 2.38 4.15.566 8.35 1.24 11.91 1.823 4.07.667 6.942 4.188 6.982 8.56.04 4.57-2.79 8.255-6.885 8.96a378.034 378.034 0 0 1-12.052 1.85c-1.64.223-3.358.69-4.386 2.233zM240.795 142.99l-2.642-7.282h-18.43l-2.706 7.28h-10.44l16.626-42.98h11.47l16.56 42.98h-10.438zm-11.857-33.83l-6.7 18.493h13.402l-6.702-18.494zm62.297 33.83v-30.094L279.12 142.99h-3.994l-12.115-30.094v30.093h-9.15v-42.98h12.825l10.44 25.967 10.438-25.97h12.887v42.98h-9.215zm16.675 0v-42.98h9.15v42.98h-9.15zm53.848 0v-30.094l-12.114 30.093h-3.995l-12.117-30.095v30.093h-9.15v-42.98h12.823l10.44 25.968 10.437-25.97h12.888v42.98h-9.213zm14.477-21.46c0-12.95 9.473-22.23 22.425-22.23 13.017 0 22.49 9.28 22.49 22.23s-9.474 22.232-22.49 22.232c-12.952 0-22.425-9.28-22.425-22.23zm35.506 0c0-8.054-5.153-14.11-13.08-14.11s-13.016 6.057-13.016 14.11c0 7.99 5.09 14.113 13.017 14.113s13.08-6.122 13.08-14.112zm22.623 21.46v-34.927h-12.565v-8.055h34.28v8.055h-12.5v34.926h-9.215zm22.325-21.46c0-12.95 9.473-22.23 22.425-22.23 13.017 0 22.49 9.28 22.49 22.23s-9.474 22.232-22.49 22.232c-12.952 0-22.425-9.28-22.425-22.23zm35.506 0c0-8.054-5.155-14.11-13.08-14.11s-13.018 6.057-13.018 14.11c0 7.99 5.09 14.113 13.017 14.113s13.08-6.122 13.08-14.112zm55.543 21.46l-2.643-7.282h-18.43l-2.705 7.28h-10.44l16.624-42.98h11.47l16.56 42.98h-10.438zm-11.856-33.83l-6.7 18.493h13.403l-6.7-18.494zm62.297 33.83v-30.094l-12.114 30.093h-3.995l-12.114-30.095v30.093h-9.15v-42.98h12.823l10.438 25.968 10.44-25.97h12.887v42.98h-9.215zm16.675 0v-42.98h9.15v42.98h-9.15z"/></svg>