<svg xmlns="http://www.w3.org/2000/svg" viewBox="0 0 233 187" height="187" width="233"><defs><clipPath id="a"><path d="M0 1399.51V0h1745.84v1399.51z"/></clipPath></defs><g clip-path="url(#a)" transform="matrix(.13333 0 0 -.13333 0 186.6)"><path d="M2.5 570.047h1740.84v260H2.5z" fill="#f3f2fa"/><path d="M1238.48 830.047c2.85 13.176 4.35 27.75 4.35 43.918 0 140.735-95.12 289.815-256.248 382.835l-242.656 140.11v-179.57l206.742-119.36c58.242-33.63 87.362-75.68 87.362-124.21 0-13.547-2.82-23.563-8.27-30.094 24.55-36.485 42.94-74.79 54.71-113.63h154.01" fill="#3451ab"/><path d="M1238.48 830.047c2.85 13.176 4.35 27.75 4.35 43.918 0 140.735-95.12 289.815-256.248 382.835l-242.656 140.11v-179.57l206.742-119.36c58.242-33.63 87.362-75.68 87.362-124.21 0-13.547-2.82-23.563-8.27-30.094 24.55-36.485 42.94-74.79 54.71-113.63z" fill="none" stroke="#3451ab" stroke-width="3"/><path d="M858.223 838.81l15.172-8.763h21.617c0 .254.03.48.03.738 0 48.53-29.12 90.578-87.354 124.203l-63.762 36.817V943.13c44.535-30.88 82.906-66.19 114.297-104.32" fill="#3451ab"/><path d="M858.223 838.81l15.172-8.763h21.617c0 .254.03.48.03.738 0 48.53-29.12 90.578-87.354 124.203l-63.762 36.817V943.13c44.535-30.88 82.906-66.19 114.297-104.32z" fill="none" stroke="#3451ab" stroke-width="3"/><path d="M1047.94 543.965c21.56-46.098 33.88-92.473 43.68-141.496l196.27-113.323c-31.93 108.403-39.87 197.98-58.5 280.9h-184.57c.98-8.31 2-16.993 3.12-26.083" fill="#3451ab"/><path d="M1047.94 543.965c21.56-46.098 33.88-92.473 43.68-141.496l196.27-113.323c-31.93 108.403-39.87 197.98-58.5 280.9h-184.57c.98-8.31 2-16.993 3.12-26.083z" fill="none" stroke="#3451ab" stroke-width="3"/><path d="M600.938 848.816v-18.77h32.52l-32.52 18.77" fill="#a4a5da"/><path d="M600.938 848.816v-18.77h32.52z" fill="none" stroke="#a4a5da" stroke-width="3"/><path d="M1084.47 830.047c-11.77 38.84-30.16 77.144-54.71 113.63-43.846 65.143-106.98 124.433-186.162 170.143l-242.66 140.11v-179.57l142.988-82.555 63.762-36.817c58.234-33.625 87.355-75.672 87.355-124.203 0-.258-.03-.484-.03-.738h189.457" fill="#a4a5da"/><path d="M1084.47 830.047c-11.77 38.84-30.16 77.144-54.71 113.63-43.846 65.143-106.98 124.433-186.162 170.143l-242.66 140.11v-179.57l142.988-82.555 63.762-36.817c58.234-33.625 87.355-75.672 87.355-124.203 0-.258-.03-.484-.03-.738z" fill="none" stroke="#a4a5da" stroke-width="3"/><path d="M1091.62 402.47c-9.8 49.022-22.12 95.397-43.68 141.495-4.06 8.7-8.47 17.39-13.24 26.082h-78.552c-3.707-50.547-23.593-84.082-59.656-101.887 3.028-19.617 5.32-41.824 8.47-67.183 21.554-46.086 33.866-92.477 43.67-141.497L1144.9 146.16c-28.8 97.77-38.07 180.23-53.28 256.31" fill="#a4a5da"/><path d="M1091.62 402.47c-9.8 49.022-22.12 95.397-43.68 141.495-4.06 8.7-8.47 17.39-13.24 26.082h-78.552c-3.707-50.547-23.593-84.082-59.656-101.887 3.028-19.617 5.32-41.824 8.47-67.183 21.554-46.086 33.866-92.477 43.67-141.497L1144.9 146.16c-28.8 97.77-38.07 180.23-53.28 256.31z" fill="none" stroke="#a4a5da" stroke-width="3"/><path d="M948.633 259.48c-9.805 49.02-22.117 95.41-43.672 141.497-9.06 19.375-19.7 38.7-32.54 58.152a129.17 129.17 0 0 1 24.073 9.03c36.063 17.804 55.95 51.34 59.656 101.886H542.44l76.642-44.246c71.824-41.476 112.594-96.066 130.063-177.01 11.34-50.01 10.8-119.868 36.714-220.868l216.05-124.75C973.12 100.95 963.842 183.41 948.63 259.48" fill="#d0ceec"/><path d="M948.633 259.48c-9.805 49.02-22.117 95.41-43.672 141.497-9.06 19.375-19.7 38.7-32.54 58.152a129.17 129.17 0 0 1 24.073 9.03c36.063 17.804 55.95 51.34 59.656 101.886H542.44l76.642-44.246c71.824-41.476 112.594-96.066 130.063-177.01 11.34-50.01 10.8-119.868 36.714-220.868l216.05-124.75C973.12 100.95 963.842 183.41 948.63 259.48z" fill="none" stroke="#d0ceec" stroke-width="3"/><path d="M858.223 838.81c-31.39 38.13-69.762 73.44-114.297 104.32-13.91 9.643-28.223 19-43.313 27.71l-242.66 140.1V931.37l142.985-82.554 32.52-18.77h231.796a577.158 577.158 0 0 1-7.03 8.763" fill="#d0ceec"/><path d="M858.223 838.81c-31.39 38.13-69.762 73.44-114.297 104.32-13.91 9.643-28.223 19-43.313 27.71l-242.66 140.1V931.37l142.985-82.554 32.52-18.77h231.796a577.158 577.158 0 0 1-7.03 8.763z" fill="none" stroke="#d0ceec" stroke-width="3"/><path d="M1238.48 830.047h-154.01c9.99-32.938 15.38-66.223 15.38-99.067 0-60.687-20.18-99.996-60.37-119.84 1.94-12.585 3.59-26.21 5.34-41.093h184.57c-13.56 60.32-32.75 117.125-71 175.05 43.62 11.665 70.27 39.583 80.09 84.95" fill="#bebde5"/><path d="M1238.48 830.047h-154.01c9.99-32.938 15.38-66.223 15.38-99.067 0-60.687-20.18-99.996-60.37-119.84 1.94-12.585 3.59-26.21 5.34-41.093h184.57c-13.56 60.32-32.75 117.125-71 175.05 43.62 11.665 70.27 39.583 80.09 84.95z" fill="none" stroke="#bebde5" stroke-width="3"/><path d="M895.012 830.047h-21.617l20.59-11.895c.617 3.618.992 7.54 1.027 11.895" fill="#bebde5"/><path d="M895.012 830.047h-21.617l20.59-11.895c.617 3.618.992 7.54 1.027 11.895z" fill="none" stroke="#bebde5" stroke-width="3"/><path d="M751 675.164a74.26 74.26 0 0 1 1.055 12.637c0 48.533-29.117 90.58-87.36 124.205l-31.238 18.043h-32.52V761.81L751 675.163" fill="#d4d3ee"/><path d="M751 675.164a74.26 74.26 0 0 1 1.055 12.637c0 48.533-29.117 90.58-87.36 124.205l-31.238 18.043h-32.52V761.81z" fill="none" stroke="#d0ceec" stroke-width="3"/><path d="M1084.47 830.047H895.012c-.035-4.356-.41-8.277-1.028-11.895-1.242-7.32-3.63-13.172-7.21-17.464 45.374-67.418 70.09-141.118 70.09-212.692 0-6.238-.294-12.168-.716-17.95h78.552c-5.86 10.665-12.22 21.35-19.3 32.063 8.73 2.33 16.7 5.397 24.08 9.03 40.19 19.843 60.37 59.152 60.37 119.84 0 32.843-5.39 66.13-15.38 99.066" fill="#d4d3ee"/><path d="M1084.47 830.047H895.012c-.035-4.356-.41-8.277-1.028-11.895-1.242-7.32-3.63-13.172-7.21-17.464 45.374-67.418 70.09-141.118 70.09-212.692 0-6.238-.294-12.168-.716-17.95h78.552c-5.86 10.665-12.22 21.35-19.3 32.063 8.73 2.33 16.7 5.397 24.08 9.03 40.19 19.843 60.37 59.152 60.37 119.84 0 32.843-5.39 66.13-15.38 99.066z" fill="none" stroke="#d0ceec" stroke-width="3"/><path d="M886.773 800.688c-6.695 9.945-13.937 19.71-21.52 29.36H633.458l31.238-18.044c58.243-33.625 87.36-75.672 87.36-124.203 0-4.654-.4-8.795-1.055-12.635-5.59-32.922-35-35.47-86.304-5.84l-206.742 119.36v-169.86l84.488-48.777H956.15c.422 5.78.715 11.71.715 17.95 0 71.573-24.715 145.273-70.09 212.69" fill="#e7e6f5"/><path d="M886.773 800.688c-6.695 9.945-13.937 19.71-21.52 29.36H633.458l31.238-18.044c58.243-33.625 87.36-75.672 87.36-124.203 0-4.654-.4-8.795-1.055-12.635-5.59-32.922-35-35.47-86.304-5.84l-206.742 119.36v-169.86l84.488-48.777H956.15c.422 5.78.715 11.71.715 17.95 0 71.573-24.715 145.273-70.09 212.69z" fill="none" stroke="#e7e6f5" stroke-width="3"/><path d="M100.488 707.574h24.258c10.156 0 18.4 2.754 24.727 8.266 6.328 5.508 9.492 12.44 9.492 20.8 0 18.434-11.25 27.657-33.75 27.657h-24.727zm93.867-91.875h-24.023l-48.516 75.12h-21.328V615.7h-19.22v165.355h46.76c15.702 0 28.105-3.813 37.206-11.426 9.102-7.62 13.653-18.225 13.653-31.82 0-10.077-3.32-19.04-9.96-26.893-6.642-7.852-15.782-13.184-27.423-15.996l52.85-79.222m88.712 88.832c10.08-2.81 18.164-7.952 24.258-15.413 6.094-7.46 9.14-15.836 9.14-25.133 0-14.535-5.663-26.742-16.99-36.62-11.33-9.884-24.69-14.83-40.08-14.83-13.124 0-24.882 2.896-35.273 8.677l3.75 15.82c10.86-5.08 21.604-7.62 32.23-7.62 10 0 18.534 3.11 25.604 9.32 7.07 6.21 10.606 14.2 10.606 23.966 0 9.61-3.79 17.418-11.37 23.438-7.577 6.015-17.616 9.023-30.116 9.023h-5.04v15.82h1.407c12.034 0 21.956 2.833 29.768 8.497 7.813 5.664 11.72 13.3 11.72 22.91 0 7.812-2.814 13.926-8.44 18.34-5.624 4.414-13.358 6.62-23.202 6.62-8.515 0-18.047-2.308-28.594-6.913l-2.577 16.52c10.625 4.848 21.328 7.27 32.11 7.27 14.765 0 26.933-3.89 36.504-11.66 9.57-7.78 14.354-17.754 14.354-29.946 0-8.433-2.91-16.304-8.73-23.61-5.82-7.308-12.832-11.894-21.036-13.77v-.702m189.705 79.452c3.434 0 6.364-1.23 8.79-3.69 2.417-2.466 3.632-5.41 3.632-8.85 0-3.592-1.195-6.6-3.574-9.022-2.385-2.422-5.33-3.637-8.846-3.637-3.207 0-6.035 1.274-8.496 3.813-2.46 2.54-3.69 5.488-3.69 8.847 0 3.36 1.23 6.29 3.69 8.79 2.46 2.5 5.29 3.75 8.496 3.75zM481.68 615.7h-18.282v106.288h-35.976v15.824h54.258V615.7m174.492 0h-18.28v78.284c0 10.86-1.744 18.73-5.216 23.614-3.48 4.882-8.93 7.324-16.348 7.324-11.176 0-23.168-6.953-35.976-20.86V615.7H562.07v122.11h18.282v-17.93c13.125 13.903 26.953 20.856 41.484 20.856 22.887 0 34.336-13.828 34.336-41.48v-83.56m131.25 104.656c-10.238 3.36-19.887 5.04-28.945 5.04-9.926 0-17.778-1.662-23.555-4.986-5.785-3.316-8.672-7.75-8.672-13.297 0-3.517 1.324-6.584 3.984-9.205 2.653-2.613 7.97-5.054 15.938-7.32l17.46-5.04c8.044-2.265 14.606-4.98 19.688-8.144 5.075-3.163 8.883-6.995 11.426-11.483 2.535-4.492 3.81-9.707 3.81-15.645 0-11.64-4.888-20.84-14.65-27.597-9.77-6.758-22.19-10.14-37.265-10.14-15 0-27.385 2.27-37.147 6.8l3.516 15.82c10.23-4.844 21.21-7.265 32.93-7.265 10.15 0 18.413 1.89 24.784 5.68 6.363 3.793 9.55 8.813 9.55 15.063 0 4.22-1.582 7.984-4.746 11.308-3.164 3.323-10.605 6.78-22.324 10.373-9.457 2.887-16.406 5.055-20.86 6.504a43.645 43.645 0 0 0-12.42 6.383c-3.833 2.816-6.74 6.17-8.732 10.08-1.99 3.908-2.987 8.282-2.987 13.126 0 10.543 4.606 18.906 13.828 25.078 9.216 6.172 21.447 9.254 36.68 9.254 9.845 0 20.778-1.676 32.813-5.04l-4.1-15.346M945.39 621.21c-12.27-5.624-24.34-8.437-36.21-8.437-21.797 0-32.696 11.524-32.696 34.57v74.645h-23.437v15.824h23.437v33.4h17.813v-33.4h41.484v-15.824H894.3v-69.84c0-7.42 1.64-13.183 4.922-17.285 3.28-4.1 7.733-6.152 13.358-6.152 9.996 0 19.88 2.23 29.65 6.68l3.163-14.18m103.48 162.774c3.43 0 6.36-1.23 8.79-3.69 2.41-2.466 3.63-5.41 3.63-8.85 0-3.592-1.2-6.6-3.58-9.022-2.38-2.422-5.33-3.637-8.84-3.637-3.21 0-6.04 1.274-8.5 3.813-2.46 2.54-3.69 5.488-3.69 8.847 0 3.36 1.23 6.29 3.69 8.79 2.46 2.5 5.29 3.75 8.5 3.75zm8.9-168.285h-18.28v106.287h-35.97v15.824h54.25V615.7m175.67 5.51c-12.27-5.624-24.34-8.437-36.21-8.437-21.8 0-32.7 11.524-32.7 34.57v74.645h-23.44v15.824h23.44v33.4h17.81v-33.4h41.49v-15.824h-41.49v-69.84c0-7.42 1.64-13.183 4.93-17.285 3.28-4.1 7.73-6.152 13.36-6.152 9.99 0 19.87 2.23 29.64 6.68l3.17-14.18m142.61-5.51h-18.28v18.046c-13.12-13.98-26.95-20.973-41.48-20.973-22.9 0-34.34 13.868-34.34 41.598v83.443h18.28V659.65c0-10.39 1.65-18.145 4.93-23.26 3.28-5.12 8.82-7.678 16.64-7.678 11.16 0 23.16 6.95 35.97 20.86v88.242h18.28V615.7m145.43 5.51c-12.27-5.624-24.34-8.437-36.21-8.437-21.79 0-32.69 11.524-32.69 34.57v74.645h-23.44v15.824h23.44v33.4h17.81v-33.4h41.49v-15.824h-41.49v-69.84c0-7.42 1.64-13.183 4.92-17.285 3.28-4.1 7.74-6.152 13.36-6.152 10 0 19.88 2.23 29.65 6.68l3.16-14.18m126.57 69.845c0 9.53-2.98 17.558-8.91 24.082-5.94 6.52-12.58 9.785-19.92 9.785-9.46 0-17.29-3.125-23.5-9.375-6.21-6.25-9.67-14.414-10.37-24.492zm19.92-14.883h-83.79c0-13.828 4-25.234 12.01-34.223 8-8.98 17.83-13.474 29.47-13.474 11.09 0 22.54 1.992 34.34 5.972l3.16-14.645c-10.78-4.844-23.36-7.27-37.73-7.27-18.13 0-32.74 5.824-43.83 17.46-11.1 11.646-16.64 27.35-16.64 47.114 0 19.374 4.98 34.824 14.94 46.343 9.96 11.527 22.83 17.285 38.62 17.285 14.06 0 25.81-5.347 35.27-16.05 9.45-10.704 14.18-24.96 14.18-42.778v-5.738" fill="#3451ab"/><path d="M2.5 570.047h1740.84v260H2.5z" fill="none" stroke="#8f92d1" stroke-width="5"/></g></svg>