<svg xmlns="http://www.w3.org/2000/svg" width="333" height="210" viewBox="0 0 333 210"><path d="M38.203 83.535l-11.618-31.54-7.09 12.178v19.36H0V0h19.495v34.46L38.203 0h18.61L39.78 30.564l21.168 52.97H38.203z"/><path d="M102.622 43.08c0 15.26-12.308 25.698-27.67 25.698-15.36 0-27.667-10.437-27.667-25.7 0-16.147 11.915-26.585 27.668-26.585s27.67 10.437 27.67 26.586zm-34.463-.69c0 13.49 3.247 14.474 6.792 14.474s6.794-.985 6.794-14.475c0-4.826-.1-13.59-6.794-13.59-6.696 0-6.794 8.763-6.794 13.59zM103.175.247h19.496v23.237h.295c2.757-5.12 6.99-6.99 12.9-6.99 14.08 0 18.903 13.49 18.903 25.5 0 13.983-5.906 26.783-21.66 26.783-6.697 0-12.31-2.363-16.15-7.877-1.18 2.167-1.968 4.53-2.657 6.893h-11.126V.247zm19.595 47.558c0 3.938.494 8.763 5.614 8.763 6.696 0 6.5-8.96 6.5-13.785 0-4.824.294-13.785-6.697-13.785-1.772 0-3.15.886-4.234 2.265-1.378 1.674-1.182 3.25-1.182 5.317v11.225zm87.122 3.15c-3.053 12.21-13.884 17.823-25.798 17.823-7.384 0-14.572-1.575-20.283-6.597-5.413-4.823-8.27-11.715-8.27-18.903 0-6.794 2.66-14.18 7.387-19.003 5.12-5.317 12.8-7.78 19.987-7.78 16.74 0 26.98 10.833 26.98 27.375v2.657H176.22c-.297 5.416 1.673 9.354 7.58 9.354 4.432 0 6.893-1.77 7.68-6.103l18.413 1.18zM190.198 36.68c0-4.923-1.575-8.665-7.09-8.665-5.12 0-7.187 4.037-6.99 8.665h14.08z"/><g fill="#FFF"><path d="M66.03 70.347h24.91c9.75 0 17.528 1.538 24.814 9.937 7.09 8.044 10.338 19.164 10.338 30.757 0 10.65-3.15 21.77-9.354 29.458-6.696 8.4-15.064 11.002-24.42 11.002H66.03V70.346zm23.73 62.46c2.758 0 4.53.236 7.09-1.42 1.87-1.3 3.348-3.075 4.43-5.322 2.364-4.732 3.152-10.174 3.152-15.615 0-5.442-1.28-12.54-4.135-17.035-3.25-4.85-6.4-4.613-11.127-4.613h-2.362v44.006h2.952zm56.213 5.113h-19.496V87.606h19.496v50.314zm0-55.14h-19.496V69.39h19.496v13.39z"/><path d="M183.532 123.25c4.332.196 8.96.787 12.505 3.445 3.84 2.856 5.81 7.78 5.81 12.505 0 7.188-4.824 11.718-11.225 13.884-5.416 1.97-13.194 2.166-19.102 2.166-8.37 0-27.275-.59-27.275-12.406 0-4.824 2.855-8.173 7.286-9.748-2.755-2.067-4.625-4.432-4.625-7.976 0-5.81 4.726-9.256 9.65-11.126-5.22-2.166-8.175-5.81-8.175-11.62 0-12.997 14.376-15.753 24.616-15.753 3.15 0 6.3.2 9.354.987 1.084-7.287 4.727-11.816 12.506-11.816l5.71.296 1.28.1-.492 13.488-4.824-.197c-1.773 0-4.53.098-5.515 1.87 3.446 2.758 5.612 6.894 5.612 11.325 0 12.604-12.898 15.362-23.04 15.362l-2.265-.1-2.068-.098c-1.674 0-4.923 0-4.923 2.46 0 2.562 3.646 2.364 5.417 2.364l13.786.59zm-18.018 13.982c-2.265 0-4.923.196-4.923 3.15 0 2.363 1.87 3.348 3.94 3.74 3.15.79 6.5.888 9.748.888 2.954 0 10.24.492 10.24-3.938 0-3.348-3.348-3.15-5.81-3.25l-9.648-.49-3.546-.1zm13.194-34.56c0-3.84-1.97-6.303-6.007-6.303-3.74 0-5.81 2.56-5.81 6.2 0 4.038 2.17 6.106 6.205 6.106 3.643 0 5.614-2.56 5.614-6.006zm43.37 35.248h-19.496V87.606h19.496v50.314zm0-55.14h-19.496V69.39h19.496v13.39zm.242 17.626v-12.8h8.172l1.478-16.05 16.936-.59v16.64h10.043v12.8h-9.85v17.33c0 3.643-.394 6.5 4.234 6.5 1.87 0 3.74-.396 5.612-.888v14.08l-11.52 1.477c-5.218.69-10.24-.984-14.08-5.12-3.84-4.135-3.74-8.96-3.74-14.375v-19.004h-7.29z"/><path d="M293.3 137.92c-.492-2.264-.69-4.627-.69-6.99-3.937 5.81-9.55 7.975-16.442 7.975-9.353 0-17.525-5.12-17.525-15.163 0-7.976 6.203-13.292 13.193-15.458 6.4-1.97 13.194-2.758 19.79-3.15v-.394c0-4.53-1.18-6.302-5.906-6.302-3.84 0-7.09 1.378-7.68 5.612l-17.92-1.674c2.952-12.505 14.866-15.754 26.19-15.754 5.908 0 13.49.788 18.412 4.332 6.598 4.628 5.81 11.127 5.81 18.314v17.625c0 3.74.1 7.483 1.575 11.027H293.3zm-1.674-23.532c-4.726.492-12.604 1.97-12.604 8.073 0 3.25 2.068 4.63 5.12 4.63 7.386 0 7.483-6.203 7.483-11.717v-.984zM332.7 137.92h-19.496V70.374H332.7v67.546z"/></g><g fill="#E60012"><path d="M66.03 70.347h24.91c9.75 0 17.528 1.538 24.814 9.937 7.09 8.044 10.338 19.164 10.338 30.757 0 10.65-3.15 21.77-9.354 29.458-6.696 8.4-15.064 11.002-24.42 11.002H66.03V70.346zm23.73 62.46c2.758 0 4.53.236 7.09-1.42 1.87-1.3 3.348-3.075 4.43-5.322 2.364-4.732 3.152-10.174 3.152-15.615 0-5.442-1.28-12.54-4.135-17.035-3.25-4.85-6.4-4.613-11.127-4.613h-2.362v44.006h2.952zm56.213 5.113h-19.496V87.606h19.496v50.314zm0-55.14h-19.496V69.39h19.496v13.39z"/><path d="M183.532 123.25c4.332.196 8.96.787 12.505 3.445 3.84 2.856 5.81 7.78 5.81 12.505 0 7.188-4.824 11.718-11.225 13.884-5.416 1.97-13.194 2.166-19.102 2.166-8.37 0-27.275-.59-27.275-12.406 0-4.824 2.855-8.173 7.286-9.748-2.755-2.067-4.625-4.432-4.625-7.976 0-5.81 4.726-9.256 9.65-11.126-5.22-2.166-8.175-5.81-8.175-11.62 0-12.997 14.376-15.753 24.616-15.753 3.15 0 6.3.2 9.354.987 1.084-7.287 4.727-11.816 12.506-11.816l5.71.296 1.28.1-.492 13.488-4.824-.197c-1.773 0-4.53.098-5.515 1.87 3.446 2.758 5.612 6.894 5.612 11.325 0 12.604-12.898 15.362-23.04 15.362l-2.265-.1-2.068-.098c-1.674 0-4.923 0-4.923 2.46 0 2.562 3.646 2.364 5.417 2.364l13.786.59zm-18.018 13.982c-2.265 0-4.923.196-4.923 3.15 0 2.363 1.87 3.348 3.94 3.74 3.15.79 6.5.888 9.748.888 2.954 0 10.24.492 10.24-3.938 0-3.348-3.348-3.15-5.81-3.25l-9.648-.49-3.546-.1zm13.194-34.56c0-3.84-1.97-6.303-6.007-6.303-3.74 0-5.81 2.56-5.81 6.2 0 4.038 2.17 6.106 6.205 6.106 3.643 0 5.614-2.56 5.614-6.006zm43.37 35.248h-19.496V87.606h19.496v50.314zm0-55.14h-19.496V69.39h19.496v13.39zm.242 17.626v-12.8h8.172l1.478-16.05 16.936-.59v16.64h10.043v12.8h-9.85v17.33c0 3.643-.394 6.5 4.234 6.5 1.87 0 3.74-.396 5.612-.888v14.08l-11.52 1.477c-5.218.69-10.24-.984-14.08-5.12-3.84-4.135-3.74-8.96-3.74-14.375v-19.004h-7.29z"/><path d="M293.3 137.92c-.492-2.264-.69-4.627-.69-6.99-3.937 5.81-9.55 7.975-16.442 7.975-9.353 0-17.525-5.12-17.525-15.163 0-7.976 6.203-13.292 13.193-15.458 6.4-1.97 13.194-2.758 19.79-3.15v-.394c0-4.53-1.18-6.302-5.906-6.302-3.84 0-7.09 1.378-7.68 5.612l-17.92-1.674c2.952-12.505 14.866-15.754 26.19-15.754 5.908 0 13.49.788 18.412 4.332 6.598 4.628 5.81 11.127 5.81 18.314v17.625c0 3.74.1 7.483 1.575 11.027H293.3zm-1.674-23.532c-4.726.492-12.604 1.97-12.604 8.073 0 3.25 2.068 4.63 5.12 4.63 7.386 0 7.483-6.203 7.483-11.717v-.984zM332.7 137.92h-19.496V70.374H332.7v67.546z"/></g><path d="M70.633 182.98h-47.36V92.855h20.874v68.055h26.486v22.07z"/><path d="M104.117 208.448c-.492-2.265-.69-4.628-.69-6.99-3.937 5.81-9.55 7.975-16.442 7.975-9.354 0-17.526-5.12-17.526-15.163 0-7.976 6.2-13.292 13.192-15.46 6.4-1.968 13.194-2.756 19.79-3.15v-.393c0-4.53-1.18-6.303-5.907-6.303-3.84 0-7.09 1.38-7.68 5.613l-17.92-1.674c2.953-12.506 14.867-15.755 26.19-15.755 5.908 0 13.49.788 18.413 4.333 6.596 4.63 5.808 11.128 5.808 18.316v17.625c0 3.743.1 7.484 1.575 11.03h-18.805zm-1.674-23.534c-4.727.492-12.604 1.97-12.604 8.074 0 3.25 2.066 4.628 5.12 4.628 7.383 0 7.48-6.203 7.48-11.718v-.984zm21.76-44.014H143.7v23.24h.295c2.757-5.12 6.99-6.992 12.898-6.992 14.08 0 18.905 13.49 18.905 25.502 0 13.982-5.908 26.782-21.662 26.782-6.695 0-12.31-2.362-16.148-7.877-1.182 2.166-1.97 4.53-2.658 6.893h-11.127V140.9zm19.594 47.56c0 3.937.493 8.763 5.612 8.763 6.693 0 6.497-8.96 6.497-13.785 0-4.825.295-13.785-6.696-13.785-1.77 0-3.15.887-4.232 2.265-1.38 1.674-1.183 3.25-1.183 5.317v11.224zm88.04-4.727c0 15.262-12.31 25.7-27.668 25.7-15.363 0-27.67-10.44-27.67-25.7 0-16.148 11.913-26.585 27.67-26.585 15.752 0 27.666 10.437 27.666 26.585zm-34.463-.69c0 13.49 3.25 14.475 6.795 14.475 3.542 0 6.792-.984 6.792-14.475 0-4.824-.1-13.588-6.794-13.588-6.697 0-6.796 8.764-6.796 13.588z"/></svg>