<svg width="774" height="287" viewBox="0 0 774 287" xmlns="http://www.w3.org/2000/svg"><title>hd_logo</title><g fill="none" fill-rule="evenodd"><g transform="translate(0 137.74)"><ellipse stroke="#000" stroke-width="20.736" cx="110.186" cy="69.183" rx="67.186" ry="69.183"/><path d="M17.825 87.284v.013h34.278V52H17.825v.014c-.228-.01-.456-.014-.686-.014C7.67 52 0 59.902 0 69.65c0 9.746 7.673 17.647 17.14 17.647.23 0 .457-.004.685-.013z" fill="#000"/></g><g transform="rotate(-180 199.5 138.26)"><ellipse stroke="#000" stroke-width="20.736" cx="110.186" cy="69.183" rx="67.186" ry="69.183"/><path d="M17.825 87.284v.013h34.278V52H17.825v.014c-.228-.01-.456-.014-.686-.014C7.67 52 0 59.902 0 69.65c0 9.746 7.673 17.647 17.14 17.647.23 0 .457-.004.685-.013z" fill="#000"/></g><path d="M177.843 6.323s-11.902 2.51-16.59 20.552c-4.687 18.04 15.79 26.792-10.792 52.326m9.477-56.454s-11.933 6.437-16.62 24.477c-4.688 18.04 10.21 25.526 0 43.29-10.21 17.766-35.43 18.35-35.43 18.35" stroke="#000" stroke-width="9.874" stroke-linecap="square"/><text font-family="AvenirNext-Regular, Avenir Next" font-size="108.864" fill="#000" transform="translate(0 6)"><tspan x="432.568" y="239.329">Cafigla</tspan></text></g></svg>