<svg xmlns="http://www.w3.org/2000/svg" viewBox="0 0 700 250"><path d="M191.335 125.294c.7 32.915-27.175 60.086-59.546 60.398-32.91.317-61.268-26.908-60.924-60.98.328-32.524 27.37-59.778 60.598-59.636 33.343.143 60.513 27.993 59.87 60.218zM131.3 74.882c-27.732-.59-50.63 22.84-50.743 50.26-.115 27.797 22.916 50.757 50.412 50.857 27.76.1 50.67-22.912 50.82-50.3.154-27.91-22.987-51.296-50.49-50.818z"/><path d="M106.594 138.39c-1.07-1.707-2.837-2.202-4.65-2.44-3.868-.507-7.87-1.123-11.895-1.83-3.99-.703-6.94-4.51-6.864-8.856.077-4.406 2.935-7.957 6.95-8.636 3.864-.654 7.682-1.22 11.914-1.84 2.55-.375 3.545-.782 4.51-2.388 1.165 1.67 3.053 2.182 4.844 2.435 3.707.523 7.492 1.21 10.83 1.814 4.52.818 7.44 4.23 7.44 8.692.002 4.44-2.966 7.96-7.384 8.76-4.454.81-7.89 1.38-11.135 1.856-1.643.24-3.388.745-4.56 2.433zM131.18 159.9c-1.35-1.95-3.542-2.263-5.378-2.524-.418-.06-.814-.116-1.2-.188-1.657-.31-3.343-.584-4.973-.85-1.303-.213-2.65-.432-3.966-.667-4.7-.837-7.718-4.285-7.69-8.783.027-4.37 3.242-7.98 7.82-8.774.76-.132 1.52-.266 2.28-.4 2.752-.486 5.6-.987 8.404-1.377 1.554-.216 3.373-.684 4.647-2.257 1.044 1.564 2.735 2.01 4.206 2.205 4.2.555 8.3 1.222 11.758 1.8 4.3.72 7.33 4.325 7.367 8.77.038 4.598-2.77 8.072-7.158 8.848-2.457.435-4.97.817-7.4 1.187-1.627.248-3.308.504-4.96.773-1.983.324-2.946.81-3.758 2.237zM131.166 116.873c-1.34-1.873-3.47-2.173-5.257-2.425-.412-.058-.8-.113-1.18-.183-1.637-.303-3.302-.574-4.913-.835-1.465-.238-2.98-.484-4.46-.753-4.173-.758-7.348-4.487-7.387-8.673-.04-4.322 2.817-7.805 7.11-8.67 2.193-.44 4.45-.807 6.63-1.162 1.378-.224 2.803-.456 4.204-.705 3.133-.557 3.82-.75 5.198-2.523 1.05 1.75 2.925 2.222 4.376 2.417 4.045.543 8.114 1.192 11.908 1.813 4.012.656 6.98 4.167 7.06 8.348.09 4.61-2.73 8.375-6.856 9.153-2.76.52-5.593.95-8.333 1.366-1.46.22-2.97.45-4.453.69-1.92.31-2.884.796-3.648 2.143zM155.92 138.217c-1.283-1.572-3.157-2.06-5.046-2.318-3.577-.49-7.09-1.126-10.674-1.79-4.27-.788-7.473-4.56-7.45-8.773.023-4.435 3.086-7.938 7.62-8.718 1.788-.308 3.575-.61 5.363-.912 1.684-.284 3.37-.57 5.052-.857 3.077-.527 3.797-.72 5.094-2.438.973 1.656 2.758 2.146 4.47 2.38 4.15.565 8.35 1.238 11.91 1.822 4.072.667 6.943 4.188 6.983 8.56.04 4.57-2.79 8.255-6.885 8.96-3.595.618-7.537 1.223-12.052 1.85-1.64.223-3.358.69-4.386 2.233z"/><g><path d="M240.795 142.99l-2.642-7.282h-18.43l-2.706 7.28h-10.44l16.626-42.98h11.47l16.56 42.98h-10.438zm-11.857-33.83l-6.7 18.493h13.402l-6.702-18.494zM291.235 142.99v-30.094L279.12 142.99h-3.994l-12.115-30.094v30.093h-9.15v-42.98h12.824l10.44 25.968 10.438-25.97h12.887v42.98h-9.215zM307.91 142.99v-42.98h9.15v42.98h-9.15zM361.758 142.99v-30.094l-12.114 30.093h-3.995l-12.116-30.094v30.093h-9.15v-42.98h12.823l10.44 25.968 10.437-25.97h12.888v42.98h-9.214zM376.235 121.53c0-12.95 9.473-22.23 22.425-22.23 13.017 0 22.49 9.28 22.49 22.23s-9.474 22.232-22.49 22.232c-12.952 0-22.425-9.28-22.425-22.23zm35.506 0c0-8.054-5.154-14.11-13.08-14.11s-13.017 6.057-13.017 14.11c0 7.99 5.09 14.113 13.017 14.113s13.08-6.122 13.08-14.112zM434.363 142.99v-34.927h-12.565v-8.055h34.28v8.055h-12.5v34.926h-9.215zM456.688 121.53c0-12.95 9.473-22.23 22.425-22.23 13.017 0 22.49 9.28 22.49 22.23s-9.474 22.232-22.49 22.232c-12.952 0-22.425-9.28-22.425-22.23zm35.506 0c0-8.054-5.155-14.11-13.08-14.11s-13.018 6.057-13.018 14.11c0 7.99 5.09 14.113 13.017 14.113s13.08-6.122 13.08-14.112zM547.737 142.99l-2.643-7.282h-18.43l-2.705 7.28h-10.44l16.625-42.98h11.47l16.56 42.98h-10.438zm-11.856-33.83l-6.7 18.493h13.402l-6.7-18.494zM598.177 142.99v-30.094l-12.114 30.093h-3.995l-12.114-30.094v30.093h-9.15v-42.98h12.823l10.438 25.968 10.44-25.97h12.887v42.98h-9.215zM614.852 142.99v-42.98h9.15v42.98h-9.15z"/></g></svg>