<svg xmlns="http://www.w3.org/2000/svg" width="553.14" height="120.619" viewBox="0 0 553.14 120.619"><path d="M120.473 60.22c.7 32.914-27.175 60.085-59.546 60.397C28.017 120.934-.34 93.71.004 59.637.33 27.113 27.374-.14 60.6.002c33.345.143 60.515 27.994 59.873 60.22zM60.44 9.806c-27.734-.59-50.63 22.84-50.745 50.26-.115 27.797 22.916 50.757 50.412 50.857 27.762.1 50.67-22.91 50.82-50.3.155-27.91-22.985-51.295-50.488-50.817z"/><path d="M35.732 73.315c-1.07-1.708-2.837-2.203-4.65-2.44-3.868-.508-7.87-1.124-11.895-1.832-3.99-.702-6.94-4.508-6.863-8.855.077-4.406 2.935-7.957 6.95-8.636 3.864-.654 7.682-1.22 11.914-1.84 2.55-.375 3.545-.782 4.51-2.388 1.165 1.67 3.053 2.182 4.844 2.435 3.707.522 7.492 1.208 10.83 1.813 4.52.82 7.44 4.23 7.44 8.693.002 4.44-2.966 7.96-7.384 8.76-4.454.81-7.89 1.38-11.135 1.856-1.643.24-3.387.745-4.56 2.433zM60.318 94.825c-1.35-1.95-3.54-2.263-5.377-2.524-.417-.06-.813-.115-1.2-.187-1.656-.31-3.342-.584-4.972-.85-1.302-.213-2.648-.432-3.965-.667-4.7-.838-7.718-4.286-7.69-8.784.027-4.37 3.242-7.98 7.82-8.774.76-.132 1.52-.266 2.28-.4 2.752-.486 5.6-.987 8.404-1.377 1.554-.215 3.373-.683 4.647-2.256C61.308 70.57 63 71.016 64.47 71.21c4.2.555 8.3 1.222 11.757 1.8 4.3.72 7.33 4.325 7.367 8.77.038 4.598-2.77 8.072-7.158 8.848-2.457.435-4.97.817-7.4 1.187-1.627.248-3.308.504-4.96.773-1.984.324-2.946.81-3.758 2.237zM60.304 51.798c-1.34-1.873-3.47-2.173-5.257-2.425-.41-.058-.8-.113-1.18-.183-1.636-.303-3.3-.574-4.912-.835-1.465-.238-2.98-.484-4.46-.753-4.173-.758-7.348-4.487-7.387-8.673-.04-4.323 2.817-7.806 7.11-8.67 2.193-.44 4.45-.808 6.63-1.163 1.378-.224 2.803-.456 4.204-.705 3.133-.557 3.82-.75 5.198-2.523 1.05 1.748 2.925 2.22 4.376 2.416 4.045.542 8.114 1.19 11.908 1.812 4.012.656 6.98 4.167 7.06 8.348.09 4.61-2.73 8.374-6.856 9.152-2.76.52-5.593.95-8.333 1.366-1.46.22-2.97.45-4.453.69-1.92.31-2.884.796-3.648 2.144zM85.06 73.14c-1.284-1.57-3.158-2.058-5.047-2.317-3.577-.49-7.09-1.125-10.674-1.788-4.27-.79-7.474-4.56-7.452-8.774.024-4.434 3.087-7.937 7.622-8.717 1.787-.307 3.574-.61 5.362-.91 1.684-.285 3.37-.57 5.052-.858 3.077-.528 3.797-.722 5.094-2.44.974 1.657 2.76 2.147 4.47 2.38 4.15.566 8.35 1.24 11.91 1.823 4.073.667 6.944 4.188 6.984 8.56.04 4.57-2.79 8.255-6.885 8.96-3.595.617-7.537 1.222-12.052 1.848-1.64.226-3.36.693-4.386 2.235z"/><g><path d="M169.933 77.914l-2.642-7.28h-18.428l-2.707 7.28h-10.44l16.626-42.98h11.47l16.56 42.98h-10.437zm-11.857-33.83l-6.7 18.494h13.402l-6.702-18.494zM220.373 77.914V47.82L208.26 77.915h-3.996L192.15 47.82v30.094H183v-42.98h12.822l10.44 25.97 10.438-25.97h12.887v42.98h-9.214zM237.047 77.914v-42.98h9.15v42.98h-9.15zM290.896 77.914V47.82l-12.114 30.094h-3.995L262.672 47.82v30.094h-9.15v-42.98h12.823l10.44 25.97 10.437-25.97h12.888v42.98h-9.214zM305.374 56.456c0-12.952 9.473-22.23 22.425-22.23 13.016 0 22.488 9.278 22.488 22.23s-9.473 22.23-22.49 22.23c-12.952 0-22.424-9.278-22.424-22.23zm35.506 0c0-8.055-5.155-14.11-13.08-14.11S314.78 48.4 314.78 56.455c0 7.99 5.09 14.112 13.017 14.112s13.08-6.122 13.08-14.112zM363.502 77.914V42.988h-12.565v-8.055h34.28v8.055h-12.5v34.926H363.5zM385.827 56.456c0-12.952 9.473-22.23 22.425-22.23 13.017 0 22.49 9.278 22.49 22.23s-9.474 22.23-22.49 22.23c-12.953 0-22.425-9.278-22.425-22.23zm35.506 0c0-8.055-5.155-14.11-13.08-14.11s-13.018 6.056-13.018 14.11c0 7.99 5.09 14.112 13.017 14.112s13.08-6.122 13.08-14.112zM476.876 77.914l-2.643-7.28h-18.43l-2.705 7.28h-10.44l16.626-42.98h11.47l16.56 42.98h-10.438zm-11.857-33.83l-6.703 18.494h13.403l-6.7-18.494zM527.315 77.914V47.82L515.2 77.915h-3.994L499.092 47.82v30.094h-9.15v-42.98h12.823l10.438 25.97 10.44-25.97h12.887v42.98h-9.215zM543.99 77.914v-42.98h9.15v42.98h-9.15z"/></g></svg>